<?xml version="1.0" encoding="UTF-8" standalone="no"?>
<!-- Created with Inkscape (http://www.inkscape.org/) -->

<svg
   xmlns:dc="http://purl.org/dc/elements/1.1/"
   xmlns:cc="http://creativecommons.org/ns#"
   xmlns:rdf="http://www.w3.org/1999/02/22-rdf-syntax-ns#"
   xmlns:svg="http://www.w3.org/2000/svg"
   xmlns="http://www.w3.org/2000/svg"
   xmlns:sodipodi="http://sodipodi.sourceforge.net/DTD/sodipodi-0.dtd"
   xmlns:inkscape="http://www.inkscape.org/namespaces/inkscape"
   width="210mm"
   height="297mm"
   viewBox="0 0 744.09448819 1052.3622047"
   id="svg2"
   version="1.1"
   inkscape:version="0.91 r13725"
   sodipodi:docname="tiny_ott_w.svg">
  <defs
     id="defs4" />
  <sodipodi:namedview
     id="base"
     pagecolor="#000000"
     bordercolor="#666666"
     borderopacity="1.0"
     inkscape:pageopacity="0"
     inkscape:pageshadow="2"
     inkscape:zoom="0.7"
     inkscape:cx="338.94113"
     inkscape:cy="274.26747"
     inkscape:document-units="px"
     inkscape:current-layer="layer1"
     showgrid="false"
     inkscape:window-width="690"
     inkscape:window-height="405"
     inkscape:window-x="2507"
     inkscape:window-y="295"
     inkscape:window-maximized="0" />
  <metadata
     id="metadata7">
    <rdf:RDF>
      <cc:Work
         rdf:about="">
        <dc:format>image/svg+xml</dc:format>
        <dc:type
           rdf:resource="http://purl.org/dc/dcmitype/StillImage" />
        <dc:title></dc:title>
      </cc:Work>
    </rdf:RDF>
  </metadata>
  <g
     inkscape:label="Layer 1"
     inkscape:groupmode="layer"
     id="layer1">
    <path
       style="fill:#000000"
       d="m 358.88645,370.74906 c 0.17433,-0.17433 0.49405,-0.25793 0.71048,-0.18579 0.22469,0.0749 0.0887,0.21088 -0.31696,0.31697 -0.49901,0.13049 -0.61614,0.0915 -0.39352,-0.13118 z"
       id="path4506"
       inkscape:connector-curvature="0" />
    <g
       id="g4542"
       inkscape:export-xdpi="90"
       inkscape:export-ydpi="90">
      <path
         sodipodi:nodetypes="csssccscscsccccsssscc"
         id="path3337"
         d="m 594.13812,743.50215 c 13.88374,9.81498 30.92016,15.585 47.10596,15.585 l 18.92209,0 c 37.06493,0 67.21774,-30.15281 67.21774,-67.22369 0,-37.05899 -30.14686,-67.2118 -67.21774,-67.2118 -9.67692,-3.05347 -47.48666,8.03901 -47.48666,-4.33643 0,0 -73.2433,36.45777 -179.08085,38.3065 -63.22774,1.10445 -176.12625,-38.3065 -176.12625,-38.3065 l 0,25.513 c 0,1.45142 0.0654,2.89095 0.15466,4.33048 -0.0952,2.5638 -0.15466,5.12164 -0.15466,7.70922 0,67.99105 32.556,127.74346 81.69633,161.95907 -20.73394,28.23859 213.08541,25.53769 191.76686,0 26.91089,-18.74364 48.84886,-45.11916 63.20252,-76.32485 z m 18.5057,-83.66527 47.5164,0 c 17.66697,0 32.03848,14.37151 32.03848,32.03252 0,17.66697 -14.37151,32.03848 -32.03848,32.03848 l -18.92209,0 c -12.12299,0 -26.39932,-6.66229 -34.62606,-16.11441 3.79513,-15.31732 5.88304,-31.39009 6.03175,-47.95659 z"
         inkscape:connector-curvature="0"
         style="fill:#ffffff;stroke:none;stroke-opacity:1" />
      <path
         inkscape:connector-curvature="0"
         id="path4530"
         d="m 387.39929,661.09251 c -51.94807,-3.35918 -97.35615,-12.11553 -117.08872,-22.57907 -13.44157,-7.12773 -16.38796,-13.83821 -9.33975,-21.2718 6.59131,-6.95174 28.83166,-15.17104 54.02073,-19.96424 7.02777,-1.33736 12.94374,-2.55549 13.1464,-2.70696 0.20249,-0.15171 -1.13359,-3.09399 -2.96975,-6.53888 -4.43118,-8.31394 -11.34076,-16.05444 -20.23358,-22.66728 l -7.28355,-5.41611 3.68885,-6.06144 c 3.38261,-5.55828 3.65856,-6.63878 3.32456,-13.01513 l -0.36459,-6.95369 4.91591,-2.22167 c 3.9016,-1.76331 5.41251,-3.24767 7.32312,-7.19441 1.32396,-2.73492 2.15127,-5.9512 1.83848,-7.14732 -0.44778,-1.71252 -0.18902,-2.02126 1.21716,-1.4531 7.44772,3.00892 15.03793,0.80896 17.89732,-5.18732 l 1.65626,-3.47315 3.62841,3.62834 c 3.22485,3.2249 4.13161,3.57744 8.15316,3.16998 2.4887,-0.25204 5.24356,-0.78406 6.12206,-1.18199 1.35713,-0.61503 1.61001,0.83868 1.68238,9.66849 0.12112,14.83368 4.22936,28.11325 12.87957,41.63568 3.91982,6.12774 16.97233,20.40015 18.65654,20.40015 2.31398,0 16.78918,-10.68823 23.12522,-17.07522 11.13884,-11.22846 18.28143,-25.26927 19.83357,-38.98849 0.6384,-5.64301 1.08955,-6.54666 4.32809,-8.66965 l 3.61544,-2.36996 -0.0122,5.60006 c -0.0183,8.334 -3.53377,23.79285 -7.28483,32.05699 -5.72247,12.60779 -15.14418,24.09108 -27.84029,33.93232 -4.38928,3.40225 -4.31599,3.48753 7.11862,8.28225 17.8731,7.49458 40.80128,11.42977 58.90024,10.10905 10.43809,-0.76172 26.46653,-4.30913 33.00939,-7.30581 2.04984,-0.93881 2.64793,-1.43976 1.3291,-1.11316 -6.30544,1.56156 -20.91902,2.27379 -29.54677,1.44 -8.2428,-0.79653 -21.51098,-3.5126 -22.63106,-4.63254 -0.1976,-0.1976 1.7348,-1.58586 4.29365,-3.08544 2.55886,-1.49959 7.09018,-4.91818 10.06948,-7.59693 18.76916,-16.87513 23.00667,-42.02132 10.41736,-61.81965 -4.05159,-6.37182 -15.53581,-17.09896 -22.08235,-20.62668 l -4.70173,-2.53365 -5.34296,3.83859 c -6.62227,4.75759 -17.13407,9.71975 -24.86069,11.73583 -3.22112,0.84039 -5.74787,2.02114 -5.61505,2.62381 0.13274,0.60317 2.18533,4.10335 4.56117,7.77917 4.63291,7.16804 5.00558,9.7816 1.4671,10.28927 -1.70183,0.24407 -4.02186,-1.95258 -9.83898,-9.31717 -6.94011,-8.78619 -10.83113,-11.78127 -10.79015,-8.30574 0.005,0.73206 0.91821,4.20611 2.02122,7.71994 2.11664,6.74278 1.59238,9.05108 -2.05553,9.05108 -1.38673,0 -2.93342,-2.61362 -5.82928,-9.84969 -3.69147,-9.22418 -5.07624,-11.39043 -7.30697,-11.43051 -0.50039,-0.005 -0.57441,3.77028 -0.16455,8.3983 0.70165,7.9261 0.61564,8.45549 -1.4769,9.11971 -1.22193,0.38783 -2.6538,0.438 -3.1819,0.11194 -0.52792,-0.32605 -1.82497,-5.26882 -2.88203,-10.98315 l -1.92188,-10.38977 -6.67395,-6.18317 c -17.25691,-15.98812 -18.20692,-36.98275 -2.31967,-51.26666 2.96205,-2.66316 5.76297,-4.8422 6.22421,-4.8422 0.46125,0 2.36286,-2.37528 4.22588,-5.27842 8.3373,-12.99255 25.15738,-24.29025 42.77154,-28.72865 11.31127,-2.85016 32.52026,-4.72615 44.57301,-3.94246 24.05107,1.56364 43.54336,10.42991 61.19184,27.83381 35.6328,35.139 46.01247,89.84561 27.73887,146.19928 -2.4337,7.50511 -3.17182,11.1096 -2.3245,11.35116 0.68287,0.19515 5.55405,1.18835 10.82489,2.20847 22.53331,4.36052 44.50285,12.76554 50.94576,19.49045 18.30773,19.1091 -37.35561,37.96947 -129.21006,43.78028 -20.24479,1.28084 -79.21244,1.22988 -99.56077,-0.0857 z M 475.247,650.55763 c 57.93493,-2.97783 96.90819,-10.56937 107.8131,-21.00063 1.61049,-1.54057 2.92828,-3.69146 2.92828,-4.77985 0,-5.10457 -10.59618,-10.98786 -27.58833,-15.31792 -5.51038,-1.40416 -10.12459,-2.42953 -10.25391,-2.27851 -0.12968,0.1511 -1.46435,2.72219 -2.96676,5.7138 l -2.73148,5.4393 4.09723,1.22755 c 2.25349,0.67516 5.20636,2.12575 6.56201,3.22344 2.07388,1.67938 2.24621,2.25918 1.08631,3.65679 -7.2335,8.71584 -81.73752,15.17373 -144.83703,12.55425 -16.17592,-0.6715 -34.20257,-1.70177 -40.05907,-2.28952 -24.47347,-2.45584 -43.41808,-6.58818 -46.33915,-10.10776 -1.86564,-2.24798 0.88078,-5.116 6.51583,-6.80425 l 4.33244,-1.29809 -0.74312,-5.52048 c -0.40864,-3.03637 -0.92996,-5.72161 -1.15832,-5.96746 -0.83103,-0.89442 -18.18857,3.38927 -26.18,6.46106 -8.73688,3.35827 -14.69199,7.91797 -14.69199,11.24944 0,17.35662 93.65679,30.49354 184.21396,25.83884 z M 379.33586,480.59791 c 2.77854,-3.5323 2.78765,-5.75281 0.0305,-8.70654 -4.23609,-4.54691 -11.67159,-1.85629 -11.67159,4.22349 0,6.67164 7.60831,9.60309 11.63581,4.48305 z m 27.0631,-12.21945 c 9.52082,-4.33794 4.75545,-20.31102 -5.56935,-18.66828 -8.536,1.35822 -11.77871,11.69514 -5.36247,17.09406 3.53211,2.97202 6.82376,3.44599 10.93182,1.57422 z m 99.42343,-5.09024 c 7.78418,-5.6703 9.51023,-12.20679 4.53663,-17.18045 -2.67349,-2.67344 -11.23505,-2.83585 -18.68376,-0.3542 -8.29252,2.76251 -8.50381,3.22565 -3.80005,8.32869 2.26994,2.46257 4.70614,6.35383 5.41379,8.64714 0.70759,2.29331 1.48111,4.78542 1.71896,5.53791 0.51812,1.63913 3.80966,0.12357 10.81443,-4.97886 z"
         style="fill:#ffffff;stroke:none" />
    </g>
  </g>
</svg>
